<?xml version="1.0" standalone="no"?>
<svg viewBox="0 0 200 200" xmlns="http://www.w3.org/2000/svg">
  <clipPath id="blob">
    <path fill="#FF0066" d="M45.2,-63.9C58.6,-52.3,69.8,-39.3,76,-23.9C82.1,-8.4,83.3,9.5,78.3,25.6C73.4,41.7,62.2,56,48.1,66.4C34.1,76.8,17,83.3,1.1,81.9C-14.9,80.4,-29.8,71,-44,60.6C-58.2,50.2,-71.6,38.9,-79.6,23.7C-87.6,8.4,-90.1,-10.8,-84.2,-26.9C-78.4,-43,-64.2,-56,-48.8,-66.9C-33.4,-77.8,-16.7,-86.7,-0.4,-86.1C15.8,-85.5,31.7,-75.5,45.2,-63.9Z" transform="translate(100 100)" />
  </clipPath>
</svg>