<?xml version="1.0" encoding="UTF-8" standalone="no"?>
<!-- Created with Inkscape (http://www.inkscape.org/) -->

<svg
   width="165mm"
   height="165mm"
   viewBox="0 0 165 165"
   version="1.1"
   id="svg5"
   xml:space="preserve"
   sodipodi:docname="logo_blue.svg"
   inkscape:version="1.2.1 (9c6d41e410, 2022-07-14)"
   xmlns:inkscape="http://www.inkscape.org/namespaces/inkscape"
   xmlns:sodipodi="http://sodipodi.sourceforge.net/DTD/sodipodi-0.dtd"
   xmlns="http://www.w3.org/2000/svg"
   xmlns:svg="http://www.w3.org/2000/svg"><sodipodi:namedview
   id="namedview750"
   pagecolor="#ffffff"
   bordercolor="#111111"
   borderopacity="1"
   inkscape:showpageshadow="0"
   inkscape:pageopacity="0"
   inkscape:pagecheckerboard="1"
   inkscape:deskcolor="#d1d1d1"
   inkscape:document-units="mm"
   showgrid="false"
   inkscape:zoom="1.0937923"
   inkscape:cx="163.65081"
   inkscape:cy="275.18936"
   inkscape:window-width="2560"
   inkscape:window-height="1369"
   inkscape:window-x="-8"
   inkscape:window-y="-8"
   inkscape:window-maximized="1"
   inkscape:current-layer="layer3" />

  <defs
   id="defs2">

    <clipPath
   clipPathUnits="userSpaceOnUse"
   id="clipPath602">
      <path
   id="path604"
   style="fill:#ff0000;fill-opacity:1;fill-rule:nonzero;stroke:none;stroke-width:0.264583"
   d="m 95.751525,65.607993 c 0.0013,-2.15e-4 0.0024,-4.53e-4 0.0036,-5.69e-4 0.01777,-0.0021 0.03529,-0.0044 0.05294,-0.0072 0.01288,-0.0021 0.02563,-0.0044 0.03824,-0.0075 0.0095,-0.0029 0.01903,-0.0061 0.02862,-0.0089 0.0018,-5.66e-4 0.0032,-0.0011 0.0049,-0.0015 -0.01221,-0.0022 -0.02466,-0.0028 -0.03705,-0.0026 z m 0.120917,-0.03754 c 0.0037,5.13e-4 0.0073,0.0013 0.0109,0.002 0.0062,0.0023 0.01178,0.0034 0.01684,0.0072 0.0029,-6.5e-5 0.0057,-3.91e-4 0.0085,-4.25e-4 0.0075,-1.13e-4 0.01514,2.3e-4 0.02271,-1.4e-5 0.0036,-2.86e-4 0.0071,-0.0011 0.01083,-0.0017 0.0052,-7.8e-4 0.01038,-0.0013 0.01573,-0.0016 0.0033,-4.67e-4 0.0066,-6.66e-4 0.01,-8.88e-4 0.0024,-2.01e-4 0.0053,-8.19e-4 0.0077,-0.0013 0.0028,-6.81e-4 0.0058,-7.07e-4 0.0089,-0.0011 0.0021,-4.36e-4 0.0046,-6.07e-4 0.0067,-9.82e-4 l 5.05e-4,-1.57e-4 c 0.03333,-0.03248 0.0686,0.0018 0.03517,0.03832 -0.0019,0.002 -4.44e-4,0.0012 -0.004,0.0045 -0.0014,9.76e-4 -0.0026,0.0019 -0.004,0.0029 -0.0035,0.0022 -0.0078,0.0033 -0.01169,0.0042 -0.003,7.49e-4 -0.0056,0.0023 -0.0089,0.0028 -0.0027,2.87e-4 -0.0051,-7.3e-5 -0.008,2.77e-4 -0.0037,3.17e-4 -0.0032,1.75e-4 -0.0057,6.76e-4 -1.41e-4,9.9e-5 -9.84e-4,4e-4 -0.002,6.27e-4 -0.0029,6.29e-4 -0.0059,7.39e-4 -0.0089,0.0011 -0.0036,3e-4 -0.0072,2.94e-4 -0.01067,5.4e-4 -0.0033,0.0063 -0.0082,0.0112 -0.01437,0.01474 -0.0048,0.0026 -0.01007,0.0048 -0.01532,0.0064 -0.0046,0.0013 -0.0093,0.0027 -0.01398,0.0038 -0.0066,0.0015 -0.01318,0.003 -0.01988,0.004 -0.0057,9.36e-4 -0.01147,0.0013 -0.01722,0.0021 -0.004,6.95e-4 -0.0077,0.0013 -0.01166,0.0025 -0.0043,0.0011 -0.0087,0.0021 -0.01299,0.0035 -0.0037,9.62e-4 -0.0074,0.0017 -0.01118,0.0024 -0.0024,4.53e-4 -0.0049,7.01e-4 -0.0072,0.0011 -1.92e-4,6.2e-5 -0.001,3.06e-4 -0.002,6.27e-4 -0.0028,8.76e-4 -0.0056,0.0017 -0.0084,0.0026 -0.0031,0.001 -0.0062,0.0021 -0.0092,0.0034 -0.0035,0.0014 -0.007,0.0033 -0.01024,0.0054 -0.009,0.0056 -0.0179,0.01168 -0.02731,0.0166 -0.0094,0.0049 -0.01917,0.0092 -0.02888,0.01329 l 0.846316,2.726268 2.995734,-0.929966 -0.874965,-2.818557 z" />
    </clipPath>
    <clipPath
   clipPathUnits="userSpaceOnUse"
   id="clipPath954">
      <path
   id="path956"
   style="fill:#ff0000;fill-opacity:1;fill-rule:nonzero;stroke:none;stroke-width:0.00732043"
   d="m 69.854703,91.077123 v 2.920249 h 5.249088 v -2.920249 z m 2.303489,0.0363 -1.5e-5,2.9e-5 v 1.5e-5 l 1.43e-4,1.5e-5 7.3e-5,2.9e-5 -4.4e-5,2.9e-5 2.72e-4,1.5e-5 c 4.72e-4,-2e-6 9.65e-4,1.4e-5 0.0015,4.4e-5 0.01015,6.12e-4 0.02033,6.53e-4 0.0305,8.44e-4 0.0023,5.1e-5 0.0047,1.2e-4 0.007,1.85e-4 0.0025,-3.7e-5 0.0051,-5.9e-5 0.0076,-7.3e-5 6.59e-4,-1.5e-5 0.0013,-2.2e-5 0.002,-1.5e-5 0.0042,3.7e-5 0.0083,4.37e-4 0.01243,9.29e-4 0.0054,2.71e-4 0.01077,5.87e-4 0.01618,9.72e-4 0.0029,2.05e-4 0.0058,4.45e-4 0.0087,6.72e-4 0.01569,0.0013 0.03133,0.0031 0.04694,0.0052 0.0082,0.0012 0.01633,0.0024 0.02438,0.0042 0.0013,2.95e-4 0.0027,6.42e-4 0.004,9.58e-4 0.0076,0.002 0.0151,0.0045 0.02248,0.0072 0.0045,0.0016 0.0089,0.0035 0.01321,0.0055 0.0031,0.0013 0.006,0.0028 0.009,0.0041 1.14e-4,3.7e-5 2.29e-4,6.6e-5 3.43e-4,1e-4 0.003,9.06e-4 0.0039,0.0011 0.0069,0.0022 0.0042,0.0016 0.0082,0.0035 0.01215,0.0056 0.0069,0.0038 0.01365,0.008 0.01986,0.0129 0.0047,0.0037 0.0094,0.0076 0.01405,0.01137 0.01469,0.01184 0.0071,0.0261 -0.006,0.02233 5.6e-4,6.99e-4 0.0011,0.0014 0.0016,0.0021 0.0032,0.0045 0.0038,0.0086 0.0029,0.01161 0.0014,0.0019 0.0029,0.0037 0.0044,0.0056 0.0018,0.0024 0.0035,0.0049 0.0051,0.0075 0.0016,0.0027 0.0028,0.0055 0.004,0.0084 0.0014,0.0034 0.0025,0.0068 0.0036,0.01028 0.0013,0.0038 0.0024,0.0077 0.0035,0.01155 0.0012,0.0039 0.0023,0.0079 0.0034,0.01177 8.11e-4,0.0027 0.0016,0.0055 0.0025,0.0082 0.002,0.0066 2.38e-4,0.01118 -0.0027,0.01311 3.42e-4,0.002 6.64e-4,0.0039 9.44e-4,0.0059 0.0013,0.0087 0.0023,0.01739 0.0029,0.02615 4.87e-4,0.0078 7.77e-4,0.01561 5e-4,0.02342 -7.4e-5,0.0048 -2.26e-4,0.0097 -7.3e-5,0.0145 v 1.5e-5 c 5.3e-4,0.01601 -0.01548,0.01707 -0.01614,0.0011 -2.21e-4,-0.0053 -5.8e-5,-0.01058 2.9e-5,-0.01587 2.54e-4,-0.0074 -7e-6,-0.01475 -4.7e-4,-0.02212 -5.41e-4,-0.0083 -0.0016,-0.0166 -0.0028,-0.02485 -9.43e-4,-0.0067 -0.0023,-0.01332 -0.0038,-0.0199 -0.001,-0.0047 -0.0024,-0.0093 -0.0039,-0.01394 -0.0013,-0.0043 -0.0031,-0.0084 -0.0047,-0.0125 -0.0015,-0.0038 -0.0031,-0.0075 -0.0048,-0.01128 -0.0017,-0.0038 -0.0036,-0.0074 -0.0056,-0.01108 -0.0024,-0.0045 -0.0053,-0.0088 -0.0082,-0.01304 -0.0027,-0.0041 -0.0057,-0.008 -0.0089,-0.01178 -0.0026,-0.0031 -0.0053,-0.0061 -0.0081,-0.009 -0.0028,-0.0028 -0.0056,-0.0055 -0.0086,-0.0081 -0.0027,-0.0025 -0.0057,-0.0048 -0.0087,-0.0069 -0.0028,-0.0019 -0.0056,-0.0037 -0.0086,-0.0053 -0.0034,-0.0019 -0.0069,-0.0035 -0.01044,-0.005 -0.0049,-0.0022 -0.01009,-0.0037 -0.01527,-0.0052 -0.0078,-0.0021 -0.01559,-0.0038 -0.02343,-0.0055 -0.0028,-6.33e-4 -0.0057,-0.0013 -0.0085,-0.0019 -0.0012,-2.14e-4 -0.0024,-4.15e-4 -0.0036,-6.29e-4 -0.0021,-4.39e-4 -0.0043,-8.02e-4 -0.0065,-0.0011 -0.0019,-3.23e-4 -0.0038,-8.48e-4 -0.0057,-0.0012 -0.0017,-2.68e-4 -0.0034,-6.34e-4 -0.0051,-8.58e-4 -0.0024,-3e-4 -0.0049,-5.28e-4 -0.0073,-6.72e-4 -0.0037,-2.21e-4 -0.0075,-5.6e-4 -0.01122,-9.01e-4 -0.0039,-3.42e-4 -0.0079,-4.98e-4 -0.01182,-7e-4 -0.0048,-2.43e-4 -0.0095,-6.53e-4 -0.01428,-9.44e-4 -0.0048,-2.9e-4 -0.0097,-5.02e-4 -0.01451,-7.15e-4 -0.006,-2.97e-4 -0.01201,-4.32e-4 -0.01802,-5.29e-4 -0.0057,-7.7e-5 -0.01137,-1.06e-4 -0.01706,-1.28e-4 -0.01272,2.38e-4 -0.02543,5.11e-4 -0.03815,8.15e-4 -0.01319,2.74e-4 -0.02638,7.05e-4 -0.03956,0.0013 -0.01119,3.55e-4 -0.02236,6.79e-4 -0.03356,6.42e-4 -0.0084,5.2e-5 -0.01679,1.56e-4 -0.02519,3e-5 -0.0032,-3.7e-5 -0.0065,-1.03e-4 -0.0098,-1.58e-4 -0.0019,4.07e-4 -0.0042,4.4e-4 -0.0068,-5.9e-5 l -2e-4,-4.4e-5 h -1.5e-5 c -0.0018,0 -0.0035,-2e-6 -0.0053,0 -0.0019,1e-6 -0.0038,7e-6 -0.0057,1.5e-5 -0.002,6e-6 -0.0041,2.9e-5 -0.0061,7.3e-5 -0.0014,3.7e-5 -0.0027,7.7e-5 -0.0041,2e-4 -0.0017,1.53e-4 -0.0035,2.74e-4 -0.0052,3.29e-4 -0.0015,4.3e-5 -0.003,5.1e-5 -0.0046,5.8e-5 -0.0016,4e-6 -0.0032,1e-6 -0.0048,1.5e-5 -0.0017,1.4e-5 -0.0033,5.1e-5 -0.005,1.14e-4 -0.0018,7.3e-5 -0.0036,1.91e-4 -0.0054,1.86e-4 -0.0015,0 -0.003,-3e-6 -0.0045,0 -0.0013,3e-6 -0.0027,4e-6 -0.004,2.9e-5 -0.0011,2.2e-5 -0.0022,4.4e-5 -0.0033,1e-4 -0.0012,7.4e-5 -0.0025,2.05e-4 -0.0037,1.86e-4 -8.57e-4,-2e-6 -0.0017,-10e-7 -0.0026,-2.9e-5 -0.0011,-3.7e-5 -0.0021,-9.2e-5 -0.0032,-2e-4 -0.0011,-1.16e-4 -0.0022,-2.96e-4 -0.0033,-3.86e-4 -0.0013,-1.25e-4 -0.0027,-2.46e-4 -0.004,-3.71e-4 -9.43e-4,-1.21e-4 -0.0019,-2.63e-4 -0.0028,-4.16e-4 -0.0033,8.67e-4 -0.0066,0.0017 -0.0099,0.0026 -0.0054,0.0015 -0.01074,0.0029 -0.01616,0.0042 -0.006,0.0014 -0.01205,0.0029 -0.01806,0.0043 -0.0039,9.69e-4 -0.0071,6.92e-4 -0.0094,-3.14e-4 -0.0075,0.0022 -0.01502,0.0045 -0.02246,0.007 -0.01117,0.0037 -0.0224,0.0075 -0.03264,0.0134 -0.0011,7.45e-4 -0.0023,0.0015 -0.0034,0.0022 -0.0024,0.0017 -0.0046,0.0038 -0.0061,0.0063 -0.0082,0.01375 -0.02146,0.01045 -0.01557,-0.0044 2.95e-4,-7.43e-4 5.54e-4,-0.0015 9.01e-4,-0.0022 0.0023,-0.0048 0.0061,-0.0089 0.01038,-0.0121 0.0015,-0.0012 0.0032,-0.0022 0.0047,-0.0032 2.24e-4,-1.34e-4 4.47e-4,-2.54e-4 6.72e-4,-3.87e-4 -7.7e-5,-0.0037 0.0031,-0.0078 0.01005,-0.0094 0.0047,-0.0011 0.0093,-0.0025 0.01387,-0.0039 0.0077,-0.0026 0.01521,-0.0054 0.02273,-0.0084 0.0067,-0.0026 0.01344,-0.0052 0.02022,-0.0077 0.0048,-0.0018 0.0097,-0.0033 0.01467,-0.0045 0.0039,-9.18e-4 0.008,-0.0015 0.01197,-0.0021 0.0025,-3.36e-4 0.0051,-5.98e-4 0.0076,-7.72e-4 7.29e-4,-5.1e-5 0.0015,-9.8e-5 0.0022,-10e-5 7.26e-4,-3e-6 0.0014,3.7e-5 0.0022,1.28e-4 0.001,1.29e-4 0.0015,2.84e-4 0.0025,5.29e-4 0.0018,4.73e-4 0.0035,0.001 0.0052,0.0015 7.67e-4,2.29e-4 0.0015,4.26e-4 0.0023,6.01e-4 6.15e-4,-5.2e-5 0.0012,-1.01e-4 0.0018,-1.43e-4 3.7e-5,-10e-7 7.4e-5,-1.5e-5 1.15e-4,-1.5e-5 0.001,-2.7e-4 0.0021,-5.24e-4 0.0031,-8.01e-4 0.007,-0.0019 0.014,-0.0038 0.02108,-0.0052 0.0069,-0.0013 0.01384,-0.0026 0.02076,-0.0039 0.006,-10e-4 0.01199,-0.0018 0.01804,-0.0023 0.0052,-3.63e-4 0.01043,-7.4e-4 0.01566,-8.01e-4 0.0079,-5.1e-5 0.01578,8.5e-5 0.02368,2e-4 0.01293,2e-4 0.02586,4.62e-4 0.03879,7.73e-4 0.01048,2.57e-4 0.02096,5.64e-4 0.03144,7.43e-4 l 0.003,2.9e-5 c 0.0018,-0.0044 0.0074,-0.008 0.01617,-0.008 6.7e-4,3e-6 0.0014,2.2e-5 0.0021,7.4e-5 0.0031,2.07e-4 0.0062,3.33e-4 0.0093,4.15e-4 0.0019,-0.0011 0.0043,-0.0017 0.0073,-0.0018 z" />
    </clipPath>
    <linearGradient
   id="sw-gradient"
   x1="70.849304"
   x2="71.379509"
   y1="90.567024"
   y2="90.036819"
   gradientTransform="matrix(0.00722822,0,0,0.00741382,69.263018,91.630015)"
   gradientUnits="userSpaceOnUse">
      <stop
   id="stop1"
   stop-color="rgba(40.952, 212.951, 180.906, 1)"
   offset="0%" />
      <stop
   id="stop2"
   stop-color="rgba(67.615, 217.504, 164.191, 1)"
   offset="100%" />
    </linearGradient>
    <clipPath
   clipPathUnits="userSpaceOnUse"
   id="clipPath737">
      <path
   id="path739"
   style="fill:#ff0000;fill-opacity:1;fill-rule:nonzero;stroke:none;stroke-width:0.00732043"
   d="m 95.561175,65.715074 -1.88e-4,1.63e-4 2.59e-4,-8e-5 z m 7.2e-5,8.3e-5 2.31e-4,-7.3e-5 -6.7e-5,-6.9e-5 z m 2.31e-4,-7.3e-5 1.91e-4,-5.9e-5 -10e-7,-1.04e-4 z m 1.91e-4,-5.9e-5 4.2e-5,-1.3e-5 4.3e-5,-5.9e-5 z m 4.2e-5,-1.3e-5 2.19e-4,-6.8e-5 -5.3e-5,-7.3e-5 z m -7.23e-4,2.25e-4 -0.428501,0.133466 0.723961,2.324857 2.801992,-0.872541 -0.723961,-2.324857 -1.912361,0.595509 c 0.0048,0.0042 0.0089,0.0092 0.01203,0.01497 0.006,0.0111 0.0033,0.02369 -0.0036,0.03618 0.0042,-0.0021 0.0085,-0.004 0.01276,-0.0061 0.11507,-0.0563 0.163458,0.061 0.04952,0.119548 -0.0038,0.0019 -0.0076,0.0037 -0.01128,0.0058 -0.0043,0.0025 -0.0085,0.005 -0.01273,0.0076 0.0022,0.0088 0.0042,0.01887 0.0058,0.03009 5.58e-4,3.12e-4 0.0011,6.47e-4 0.0016,9.99e-4 0.0076,0.0049 0.01421,0.0098 0.01985,0.01456 0.02738,-0.0024 0.05424,0.01826 0.06142,0.06114 0.06757,0.0019 0.07562,0.08024 -0.01219,0.134122 l -3.16e-4,1.88e-4 c -7.11e-4,0.0037 -0.0014,0.0074 -0.0021,0.01112 0.0123,0.0097 0.02782,0.02515 0.04916,0.04783 0.01074,0.01141 0.0013,0.03136 5.13e-4,0.047 -6.94e-4,0.01313 -0.0029,0.02613 -0.0048,0.03914 0.0167,0.01264 0.02432,0.03679 0.03227,0.05665 0.0043,0.01071 -1.03e-4,0.0231 -0.0011,0.03459 -0.0013,0.01474 -0.0075,0.0467 -0.01046,0.06239 0.0095,0.0078 0.01834,0.01707 0.02822,0.02398 0.0045,0.01234 0.01019,0.02433 0.01353,0.03704 0.0052,0.01974 0.0065,0.05047 0.007,0.07049 1.45e-4,0.005 2.19e-4,0.01 2.64e-4,0.01494 0.02906,0.01774 0.05992,0.03291 0.08665,0.05397 0.004,0.0032 5.29e-4,0.01027 4.67e-4,0.0154 -8.4e-5,0.0071 -5.96e-4,0.01414 -9e-4,0.0212 -0.0017,0.03903 -0.0033,0.07806 -0.0056,0.11705 -6.55e-4,0.0093 -0.0013,0.01853 -0.0019,0.0278 0.02266,0.01733 0.04867,0.03153 0.06517,0.05458 0.0066,0.0093 -0.0023,0.02279 -0.005,0.03386 -0.0022,0.009 -0.01534,0.02934 -0.02084,0.03816 -0.01154,0.01728 -0.02456,0.03347 -0.03685,0.05022 0.0031,0.0027 0.0051,0.008 0.0044,0.01557 -1e-4,0.0011 -2.45e-4,0.0022 -4.25e-4,0.0032 2.63e-4,-1.05e-4 5.21e-4,-1.93e-4 7.83e-4,-2.75e-4 0.0085,-0.0026 0.01638,0.0064 0.01021,0.02063 -0.0012,0.0027 -0.0023,0.0054 -0.0035,0.008 0.0052,0.002 0.0085,0.0091 0.0047,0.01959 -0.0021,0.0057 -0.0042,0.01137 -0.0064,0.01701 4.6e-5,1.26e-4 1.03e-4,2.58e-4 1.51e-4,3.88e-4 2.22e-4,6.14e-4 5.25e-4,0.0014 6.53e-4,0.002 1.2e-4,6.34e-4 2.3e-4,0.0013 2.65e-4,0.0019 5.1e-5,9.52e-4 10e-7,0.0021 -8.2e-5,0.0032 0.002,3.8e-4 0.0035,0.0028 0.0023,0.0067 -5.23e-4,0.0017 -0.0011,0.0035 -0.0017,0.0052 9.22e-4,6.59e-4 0.0016,0.0019 0.0016,0.0036 3.48e-4,9.2e-4 5.49e-4,0.0021 4.93e-4,0.0034 -5.7e-5,0.0014 -7.8e-5,6.41e-4 7e-6,0.002 2e-5,2.86e-4 2.6e-5,5.67e-4 1.9e-5,8.32e-4 8.06e-4,-0.0012 0.0012,-0.0024 0.0014,-0.0023 1.5e-4,3e-5 2.21e-4,7.86e-4 3.2e-4,0.0028 3.4e-5,6.81e-4 1.14e-4,0.0014 9.8e-5,0.0021 -3.2e-5,0.0012 -3.61e-4,0.0031 -6.37e-4,0.0043 0.0019,7.62e-4 0.003,0.0035 0.0014,0.0072 -1.1e-4,2.42e-4 -2.33e-4,4.78e-4 -3.45e-4,7.21e-4 2.35e-4,4.05e-4 4.35e-4,8.55e-4 5.85e-4,0.0013 1.14e-4,3.57e-4 1.63e-4,6.73e-4 2.5e-4,0.0011 7.5e-5,3.66e-4 1.5e-4,7.92e-4 1.94e-4,0.0011 5.7e-5,4.34e-4 9.4e-5,8.03e-4 1.32e-4,0.0013 4e-6,5.15e-4 2.5e-5,0.001 6e-6,0.0015 -3.8e-5,0.0012 -1.83e-4,0.0024 -3.33e-4,0.0036 -9.4e-5,7.87e-4 -1.91e-4,0.0016 -3.04e-4,0.0023 1.76e-4,1.04e-4 3.21e-4,2.55e-4 4.49e-4,4.3e-4 2e-4,-1.58e-4 4.01e-4,-2.76e-4 6.08e-4,-3.54e-4 0.0015,-5.53e-4 0.003,9.88e-4 0.002,0.0035 -3e-4,7.87e-4 -6.54e-4,0.0016 -9.93e-4,0.0024 6.25e-4,5.81e-4 8.44e-4,0.0017 1.58e-4,0.0032 -2.53e-4,5.51e-4 -4.43e-4,0.0011 -6.53e-4,0.0017 2.52e-4,1.43e-4 4.34e-4,5.08e-4 3.88e-4,0.001 -2.1e-5,2.26e-4 -5.8e-5,4.47e-4 -8.9e-5,6.72e-4 -4.6e-5,3.37e-4 -1.17e-4,6.81e-4 -1.82e-4,0.001 4.92e-4,2.65e-4 3.65e-4,5.05e-4 -2.4e-5,7.41e-4 l -1.4e-5,5e-6 c -2e-6,1.6e-5 5e-6,3e-5 -1e-6,4.7e-5 l 5e-6,1.4e-5 9e-6,2.7e-5 c 4e-6,3.8e-5 5e-6,6.8e-5 10e-7,1.04e-4 1.6e-5,10e-7 3e-5,-2e-6 4.7e-5,10e-7 0,2.3e-5 -6e-6,5.6e-5 -7e-6,7.9e-5 l 4e-6,1.4e-5 c 3.2e-5,2.8e-5 5.1e-5,6.2e-5 7.7e-5,9.6e-5 1.5e-5,2.6e-5 7e-6,1.22e-4 0,1.5e-4 -3e-6,1.6e-5 1.3e-5,5.7e-5 8e-6,7.4e-5 l 4e-6,1.4e-5 c 3.4e-5,3.6e-5 6.4e-5,8.2e-5 7e-5,1.28e-4 4.2e-5,1e-5 8.7e-5,5.8e-5 1.3e-4,1.24e-4 1.7e-5,3.3e-5 -6e-6,1.29e-4 -1e-5,1.68e-4 -8e-6,9.7e-5 -2e-5,1.84e-4 -3.2e-5,2.79e-4 l -1.7e-5,9.5e-5 1.9e-5,1e-5 c 1.8e-5,9e-6 4e-6,8.7e-5 10e-7,1.04e-4 -8e-6,7.1e-5 -1.2e-5,1.34e-4 -2.7e-5,2.03e-4 -1.5e-5,7.4e-5 -2.3e-5,1.49e-4 -3.6e-5,2.19e-4 -1.2e-5,5.8e-5 -4.4e-5,1.15e-4 -6.6e-5,1.71e-4 -2.4e-5,4.6e-5 -4.1e-5,9.1e-5 -6.2e-5,1.39e-4 -2.7e-5,6.2e-5 -5.1e-5,1.17e-4 -8e-5,1.75e-4 -2.6e-5,6.2e-5 -7e-5,1.35e-4 -1.04e-4,1.98e-4 -3.3e-5,6.4e-5 -5.8e-5,1.27e-4 -8.9e-5,1.91e-4 -3.8e-5,7.4e-5 -7.7e-5,1.42e-4 -1.13e-4,2.15e-4 -3.2e-5,7.1e-5 -6e-5,1.4e-4 -9.9e-5,2.11e-4 -4.1e-5,9e-5 -1.1e-4,1.76e-4 -1.6e-4,2.59e-4 -5.2e-5,7.8e-5 -8.7e-5,1.56e-4 -1.36e-4,2.37e-4 -4.7e-5,6.9e-5 -8.6e-5,1.46e-4 -1.27e-4,2.19e-4 -3.9e-5,7.4e-5 -8.4e-5,1.43e-4 -1.26e-4,2.19e-4 -3.8e-5,7.3e-5 -9.1e-5,1.38e-4 -1.31e-4,2.05e-4 -4.1e-5,6.6e-5 -7.6e-5,1.47e-4 -1.13e-4,2.14e-4 -4.1e-5,9.1e-5 -9.6e-5,1.58e-4 -1.49e-4,2.42e-4 -5.7e-5,9.5e-5 -1.21e-4,1.81e-4 -1.86e-4,2.67e-4 -5.3e-5,7.8e-5 -1.12e-4,1.61e-4 -1.68e-4,2.32e-4 -4e-5,6.6e-5 -8.8e-5,1.26e-4 -1.34e-4,1.92e-4 -4.8e-5,6.9e-5 -8.5e-5,1.46e-4 -1.26e-4,2.19e-4 -3.8e-5,5e-5 -7.1e-5,1.1e-4 -9.9e-5,1.65e-4 l -7.5e-5,1.43e-4 c -3.1e-5,7.1e-5 -7.6e-5,1.37e-4 -1.18e-4,2.01e-4 -5.1e-5,8.5e-5 -1.1e-4,1.61e-4 -1.63e-4,2.45e-4 l -1.99e-4,2.72e-4 c -7.2e-5,9.2e-5 -1.37e-4,1.83e-4 -2.14e-4,2.76e-4 l -1.81e-4,2.36e-4 -1.16e-4,1.56e-4 c -3.8e-5,5e-5 -6.7e-5,1.12e-4 -9.9e-5,1.65e-4 -5.4e-5,8.5e-5 -1.16e-4,1.75e-4 -1.72e-4,2.63e-4 -2e-6,3e-6 -1.5e-5,2e-6 -1.4e-5,5e-6 l -1e-5,1.8e-5 c -2.7e-5,6.2e-5 -4.9e-5,1.25e-4 -7.7e-5,1.88e-4 -3.8e-5,7.3e-5 -7.3e-5,1.45e-4 -1.13e-4,2.14e-4 -4.1e-5,6.7e-5 -9e-5,1.41e-4 -1.31e-4,2.06e-4 -4.1e-5,6.7e-5 -8.6e-5,1.18e-4 -1.21e-4,1.87e-4 -4.6e-5,7.6e-5 -8.1e-5,1.56e-4 -1.23e-4,2.33e-4 -4e-5,6.7e-5 -8.4e-5,1.33e-4 -1.16e-4,2.01e-4 -2.5e-5,6.9e-5 -6.1e-5,1.3e-4 -9.1e-5,1.93e-4 -3.3e-5,6.5e-5 -5e-5,1.4e-4 -8.6e-5,2.07e-4 -3.3e-5,6.4e-5 -7.2e-5,1.19e-4 -1.07e-4,1.82e-4 -5e-5,1e-4 -1e-4,1.99e-4 -1.64e-4,2.91e-4 -6.3e-5,1.02e-4 -1.34e-4,1.95e-4 -1.92e-4,2.99e-4 -4.9e-5,9.3e-5 -9.7e-5,1.86e-4 -1.36e-4,2.82e-4 -3.4e-5,8.9e-5 -7.8e-5,1.71e-4 -1.14e-4,2.6e-4 -4.9e-5,1.24e-4 -1.14e-4,2.38e-4 -1.74e-4,3.54e-4 -5e-5,9.4e-5 -9.4e-5,1.88e-4 -1.37e-4,2.82e-4 -4.5e-5,1.01e-4 -8.5e-5,1.97e-4 -1.33e-4,2.96e-4 -4.8e-5,1.14e-4 -1.2e-4,2.2e-4 -1.83e-4,3.27e-4 -7.2e-5,1.26e-4 -1.52e-4,2.36e-4 -2.33e-4,3.57e-4 -9.1e-5,1.41e-4 -1.85e-4,2.95e-4 -2.66e-4,4.41e-4 -5.3e-5,9.8e-5 -1.06e-4,1.97e-4 -1.64e-4,2.92e-4 -9e-6,1.8e-5 -1.9e-5,3.6e-5 -2.8e-5,5.5e-5 l -8.1e-5,1.73e-4 c -9.4e-5,2.25e-4 -2.08e-4,4.4e-4 -3.03e-4,6.64e-4 -1.11e-4,2.54e-4 -2.11e-4,5.14e-4 -3.12e-4,7.72e-4 -9.8e-5,2.49e-4 -1.92e-4,5.02e-4 -2.91e-4,7.49e-4 -1.09e-4,2.64e-4 -2.14e-4,5.26e-4 -3.23e-4,7.9e-4 -1.14e-4,2.76e-4 -2.7e-4,5.31e-4 -4.33e-4,7.78e-4 -9.6e-5,1.52e-4 -2.01e-4,3.05e-4 -2.88e-4,4.64e-4 -6.8e-5,1.34e-4 -1.26e-4,2.6e-4 -1.76e-4,3.99e-4 -1.81e-4,5.01e-4 -4.77e-4,7.39e-4 -7.61e-4,7.76e-4 -0.0012,0.0015 -0.0028,0.0014 -0.0034,5.34e-4 -0.0012,-1.9e-5 -0.002,-0.0011 -0.0015,-0.0026 -0.0021,0.0033 -0.0055,0.0012 -0.0034,-0.0021 3.67e-4,-5.94e-4 7.28e-4,-0.0012 0.0011,-0.0018 3.49e-4,-6.22e-4 6.81e-4,-0.0012 9.92e-4,-0.0019 -0.0016,6.08e-4 -0.0031,-9.79e-4 -0.0019,-0.0036 4e-6,-8e-6 -3e-6,-2.2e-5 6e-6,-3.2e-5 -2.98e-4,-1.1e-5 -5.77e-4,-1e-4 -8.13e-4,-2.56e-4 -0.0035,0.0025 -0.0074,-7.43e-4 -0.005,-0.0061 -0.0026,9.99e-4 -0.0051,0.0015 -0.0041,-0.002 1.01e-4,-3.45e-4 2.04e-4,-6.81e-4 3.23e-4,-9.84e-4 1.41e-4,-3.91e-4 5.38e-4,-0.0012 7.15e-4,-0.0016 2.17e-4,-4.46e-4 4.31e-4,-9.03e-4 6.59e-4,-0.0013 -8.91e-4,-0.0013 -0.0011,-0.0033 6.4e-5,-0.006 6.75e-4,-0.0015 0.0013,-0.0031 0.002,-0.0046 -0.0029,0.0041 -0.0068,0.0036 -0.0077,6.61e-4 -5.68e-4,-3.56e-4 -9.35e-4,-8.45e-4 -0.0013,-0.0016 -0.0015,0.0031 -0.003,0.0061 -0.0044,0.0092 l -0.0013,0.0028 c -0.0097,0.02048 -0.03035,0.01071 -0.02066,-0.0098 l 0.0013,-0.0028 c 0.0015,-0.0033 0.0031,-0.0065 0.0047,-0.0098 -9.9e-4,-3.03e-4 -0.0019,-8.17e-4 -0.0027,-0.0014 -0.0084,0.01537 -0.0262,0.0077 -0.01968,-0.01202 0.0011,-0.0034 5.07e-4,-0.0016 0.0018,-0.0053 0.0028,-0.0072 0.006,-0.01414 0.0093,-0.02106 0.0036,-0.0073 0.0075,-0.01449 0.01085,-0.02189 3.06e-4,-7.24e-4 6.08e-4,-0.0014 9.17e-4,-0.0022 -0.0017,-0.0027 -0.0028,-0.0064 -0.0026,-0.01129 -7.62e-4,4.06e-4 -0.0016,6.97e-4 -0.0025,8.82e-4 -0.02623,0.0055 -0.05349,0.0031 -0.08024,0.0046 -1.48e-4,-2.79e-4 -3.17e-4,-5.48e-4 -4.67e-4,-8.28e-4 -0.03054,-0.0023 -0.06117,-0.0129 -0.08709,-0.02904 -0.01039,-0.0065 -0.0084,-0.02316 -0.01032,-0.03526 -0.0028,-0.01807 0.002,-0.04354 0.0044,-0.06109 0.0021,-0.01437 0.008,-0.05476 0.0099,-0.06931 0.0013,-0.0099 0.0025,-0.01976 0.0034,-0.02969 5.96e-4,-0.006 4.83e-4,-0.01215 0.0013,-0.01818 1.61e-4,-0.0013 4.7e-4,-0.0044 0.0015,-0.0036 0.0046,0.0037 0.0074,0.0091 0.01107,0.01362 0.0082,0.0042 0.01546,0.01145 0.0246,0.01272 0.006,8.3e-4 0.0121,7.55e-4 0.01818,1.04e-4 -0.01188,-0.0038 -0.02679,-0.01313 -0.04913,-0.02996 -0.01233,-0.0093 -0.01373,-0.02769 -0.01895,-0.04224 -0.0038,-0.01063 -0.0055,-0.02197 -0.008,-0.033 -0.0031,-0.01379 -0.01037,-0.05162 -0.01309,-0.06565 -0.0011,-0.0056 -0.0024,-0.01248 -0.0038,-0.01929 -0.0094,-0.0041 -0.01819,-0.01013 -0.02632,-0.01633 -0.0089,-0.0068 -0.01496,-0.01659 -0.0211,-0.02588 -0.01284,-0.01928 -0.02328,-0.04688 -0.03211,-0.06762 -0.0015,-0.0037 -0.003,-0.0075 -0.0045,-0.01127 -0.01794,-0.0071 -0.04416,-0.01825 -0.08429,-0.03181 -0.0047,-0.0016 0.0019,-0.0097 0.003,-0.01453 0.0034,-0.01536 0.01664,-0.07375 0.01881,-0.08337 0.0022,-0.0097 0.0044,-0.01944 0.0066,-0.02916 l -0.0031,-0.0094 c -0.0012,0.0015 -0.0025,0.003 -0.0037,0.0046 -0.03813,0.046 -0.07707,0.0913 -0.117605,0.135202 -0.04223,0.04311 -0.0507,0.04188 -0.118432,-0.04442 -0.009,0.0013 -0.0178,5.5e-5 -0.02586,-0.0051 -0.07589,-0.04848 -0.04411,-0.08709 -0.01788,-0.123007 0.0091,-0.01243 0.01834,-0.02471 0.02765,-0.03696 0.01204,-0.01585 0.02422,-0.03157 0.03633,-0.04736 0.0074,-0.0096 0.01492,-0.01907 0.02239,-0.02861 -0.0074,-0.0093 -0.01362,-0.01929 -0.01784,-0.0304 -0.0026,0.0013 -0.0051,0.0026 -0.0077,0.0039 -0.04,0.01968 -0.09578,0.04741 -0.128009,-0.02853 -0.01295,-0.03051 0.02009,-0.06318 0.03013,-0.09478 0.0015,-0.0018 0.003,-0.0035 0.0045,-0.0052 -0.0067,-0.0014 -0.01321,-0.0033 -0.01923,-0.0065 -0.01578,-0.0084 -0.02728,-0.0203 -0.03578,-0.03417 -0.01047,0.0039 -0.02179,0.009 -0.02816,0.0018 -0.07785,-0.08761 -0.06311,-0.08341 -0.01805,-0.133932 0.0061,-0.0058 0.01268,-0.01142 0.01916,-0.017 z m 0.137929,0.05341 c 1.1e-5,1.5e-5 7e-6,4.5e-5 3.1e-5,4.9e-5 1.2e-5,-1e-5 2.6e-5,-1.6e-5 3.8e-5,-2.6e-5 z m 3.1e-5,4.9e-5 -8.3e-5,-1.9e-5 c 1.4e-5,2e-5 4e-6,3.7e-5 3.6e-5,6.4e-5 1.8e-5,-1.5e-5 2.9e-5,-2.9e-5 4.7e-5,-4.5e-5 z m -1.46e-4,1.06e-4 8e-6,2.7e-5 c -0.0027,0.0023 -0.0051,0.0043 -0.0076,0.0063 2.05e-4,4.37e-4 4.06e-4,10e-4 6.19e-4,0.0014 0.0028,-10e-4 0.0049,-0.0018 0.009,-0.0033 3.25e-4,-1.16e-4 5.49e-4,-2.17e-4 8.7e-4,-3.31e-4 -9.34e-4,-0.0014 -0.0019,-0.0028 -0.0029,-0.0041 z m -0.129302,0.04609 c 4e-5,6.19e-4 10e-4,0.006 0.0024,0.0099 -7.88e-4,-0.003 -0.0015,-0.006 -0.0022,-0.0091 -1.12e-4,-5.08e-4 -1.8e-4,-7.52e-4 -2e-4,-7.91e-4 z m 0.602896,0.418876 -6.7e-5,6.96e-4 c 3.17e-4,-5.3e-5 0.0012,1.5e-5 9.57e-4,-1.49e-4 -2.99e-4,-1.77e-4 -5.96e-4,-3.72e-4 -8.9e-4,-5.47e-4 z m 0.02135,-2.54e-4 c -0.0017,0.002 -0.0036,0.0039 -0.005,0.0061 -0.0011,0.0017 -0.0028,0.0044 -0.0047,0.0075 0.0032,-0.0036 0.0062,-0.0082 0.0097,-0.01352 z m -0.002,0.143017 -5e-6,3.2e-5 c 4.7e-5,2.5e-4 8.8e-5,5.05e-4 1.39e-4,7.36e-4 -5.3e-5,-2.68e-4 -9.8e-5,-5.35e-4 -1.34e-4,-7.67e-4 z m 1.89e-4,9.89e-4 -10e-7,4.6e-5 c 7e-5,2.99e-4 1.46e-4,5.65e-4 2.18e-4,8.46e-4 -7.3e-5,-2.82e-4 -1.49e-4,-5.76e-4 -2.17e-4,-8.92e-4 z m 0.02189,0.006 c -4.4e-5,2.9e-5 -6e-5,8e-5 -1.2e-4,1.43e-4 -0.0013,0.0015 -0.0024,0.0031 -0.0036,0.0047 5e-4,-2.46e-4 9.81e-4,-5.33e-4 0.0015,-7.66e-4 0.0012,-5.53e-4 0.0026,-0.004 0.0023,-0.0041 z m -0.08083,0.202175 c -0.0012,5.02e-4 -0.0027,0.005 -0.0017,0.0041 0.0011,-9.98e-4 0.0017,-0.0025 0.0025,-0.0038 l -2.59e-4,-2.04e-4 c -1.49e-4,-1.19e-4 -3.15e-4,-9.8e-5 -4.87e-4,-2.8e-5 z m 0.234093,0.198673 c -5.55e-4,4.46e-4 -0.0011,8.88e-4 -0.0016,0.0014 7.58e-4,-3.22e-4 0.0015,-6.09e-4 0.0023,-9.4e-4 1.4e-5,-7e-6 5e-5,-3.9e-5 6.2e-5,-5e-5 2.5e-5,-1.65e-4 -5.34e-4,-5.4e-4 -7.07e-4,-3.94e-4 z" />
    </clipPath>
  <clipPath
   clipPathUnits="userSpaceOnUse"
   id="clipPath954-0">
      <path
   id="path956-4"
   style="fill:#ff0000;fill-opacity:1;fill-rule:nonzero;stroke:none;stroke-width:0.00732043"
   d="m 69.854703,91.077123 v 2.920249 h 5.249088 v -2.920249 z m 2.303489,0.0363 -1.5e-5,2.9e-5 v 1.5e-5 l 1.43e-4,1.5e-5 7.3e-5,2.9e-5 -4.4e-5,2.9e-5 2.72e-4,1.5e-5 c 4.72e-4,-2e-6 9.65e-4,1.4e-5 0.0015,4.4e-5 0.01015,6.12e-4 0.02033,6.53e-4 0.0305,8.44e-4 0.0023,5.1e-5 0.0047,1.2e-4 0.007,1.85e-4 0.0025,-3.7e-5 0.0051,-5.9e-5 0.0076,-7.3e-5 6.59e-4,-1.5e-5 0.0013,-2.2e-5 0.002,-1.5e-5 0.0042,3.7e-5 0.0083,4.37e-4 0.01243,9.29e-4 0.0054,2.71e-4 0.01077,5.87e-4 0.01618,9.72e-4 0.0029,2.05e-4 0.0058,4.45e-4 0.0087,6.72e-4 0.01569,0.0013 0.03133,0.0031 0.04694,0.0052 0.0082,0.0012 0.01633,0.0024 0.02438,0.0042 0.0013,2.95e-4 0.0027,6.42e-4 0.004,9.58e-4 0.0076,0.002 0.0151,0.0045 0.02248,0.0072 0.0045,0.0016 0.0089,0.0035 0.01321,0.0055 0.0031,0.0013 0.006,0.0028 0.009,0.0041 1.14e-4,3.7e-5 2.29e-4,6.6e-5 3.43e-4,1e-4 0.003,9.06e-4 0.0039,0.0011 0.0069,0.0022 0.0042,0.0016 0.0082,0.0035 0.01215,0.0056 0.0069,0.0038 0.01365,0.008 0.01986,0.0129 0.0047,0.0037 0.0094,0.0076 0.01405,0.01137 0.01469,0.01184 0.0071,0.0261 -0.006,0.02233 5.6e-4,6.99e-4 0.0011,0.0014 0.0016,0.0021 0.0032,0.0045 0.0038,0.0086 0.0029,0.01161 0.0014,0.0019 0.0029,0.0037 0.0044,0.0056 0.0018,0.0024 0.0035,0.0049 0.0051,0.0075 0.0016,0.0027 0.0028,0.0055 0.004,0.0084 0.0014,0.0034 0.0025,0.0068 0.0036,0.01028 0.0013,0.0038 0.0024,0.0077 0.0035,0.01155 0.0012,0.0039 0.0023,0.0079 0.0034,0.01177 8.11e-4,0.0027 0.0016,0.0055 0.0025,0.0082 0.002,0.0066 2.38e-4,0.01118 -0.0027,0.01311 3.42e-4,0.002 6.64e-4,0.0039 9.44e-4,0.0059 0.0013,0.0087 0.0023,0.01739 0.0029,0.02615 4.87e-4,0.0078 7.77e-4,0.01561 5e-4,0.02342 -7.4e-5,0.0048 -2.26e-4,0.0097 -7.3e-5,0.0145 v 1.5e-5 c 5.3e-4,0.01601 -0.01548,0.01707 -0.01614,0.0011 -2.21e-4,-0.0053 -5.8e-5,-0.01058 2.9e-5,-0.01587 2.54e-4,-0.0074 -7e-6,-0.01475 -4.7e-4,-0.02212 -5.41e-4,-0.0083 -0.0016,-0.0166 -0.0028,-0.02485 -9.43e-4,-0.0067 -0.0023,-0.01332 -0.0038,-0.0199 -0.001,-0.0047 -0.0024,-0.0093 -0.0039,-0.01394 -0.0013,-0.0043 -0.0031,-0.0084 -0.0047,-0.0125 -0.0015,-0.0038 -0.0031,-0.0075 -0.0048,-0.01128 -0.0017,-0.0038 -0.0036,-0.0074 -0.0056,-0.01108 -0.0024,-0.0045 -0.0053,-0.0088 -0.0082,-0.01304 -0.0027,-0.0041 -0.0057,-0.008 -0.0089,-0.01178 -0.0026,-0.0031 -0.0053,-0.0061 -0.0081,-0.009 -0.0028,-0.0028 -0.0056,-0.0055 -0.0086,-0.0081 -0.0027,-0.0025 -0.0057,-0.0048 -0.0087,-0.0069 -0.0028,-0.0019 -0.0056,-0.0037 -0.0086,-0.0053 -0.0034,-0.0019 -0.0069,-0.0035 -0.01044,-0.005 -0.0049,-0.0022 -0.01009,-0.0037 -0.01527,-0.0052 -0.0078,-0.0021 -0.01559,-0.0038 -0.02343,-0.0055 -0.0028,-6.33e-4 -0.0057,-0.0013 -0.0085,-0.0019 -0.0012,-2.14e-4 -0.0024,-4.15e-4 -0.0036,-6.29e-4 -0.0021,-4.39e-4 -0.0043,-8.02e-4 -0.0065,-0.0011 -0.0019,-3.23e-4 -0.0038,-8.48e-4 -0.0057,-0.0012 -0.0017,-2.68e-4 -0.0034,-6.34e-4 -0.0051,-8.58e-4 -0.0024,-3e-4 -0.0049,-5.28e-4 -0.0073,-6.72e-4 -0.0037,-2.21e-4 -0.0075,-5.6e-4 -0.01122,-9.01e-4 -0.0039,-3.42e-4 -0.0079,-4.98e-4 -0.01182,-7e-4 -0.0048,-2.43e-4 -0.0095,-6.53e-4 -0.01428,-9.44e-4 -0.0048,-2.9e-4 -0.0097,-5.02e-4 -0.01451,-7.15e-4 -0.006,-2.97e-4 -0.01201,-4.32e-4 -0.01802,-5.29e-4 -0.0057,-7.7e-5 -0.01137,-1.06e-4 -0.01706,-1.28e-4 -0.01272,2.38e-4 -0.02543,5.11e-4 -0.03815,8.15e-4 -0.01319,2.74e-4 -0.02638,7.05e-4 -0.03956,0.0013 -0.01119,3.55e-4 -0.02236,6.79e-4 -0.03356,6.42e-4 -0.0084,5.2e-5 -0.01679,1.56e-4 -0.02519,3e-5 -0.0032,-3.7e-5 -0.0065,-1.03e-4 -0.0098,-1.58e-4 -0.0019,4.07e-4 -0.0042,4.4e-4 -0.0068,-5.9e-5 l -2e-4,-4.4e-5 h -1.5e-5 c -0.0018,0 -0.0035,-2e-6 -0.0053,0 -0.0019,1e-6 -0.0038,7e-6 -0.0057,1.5e-5 -0.002,6e-6 -0.0041,2.9e-5 -0.0061,7.3e-5 -0.0014,3.7e-5 -0.0027,7.7e-5 -0.0041,2e-4 -0.0017,1.53e-4 -0.0035,2.74e-4 -0.0052,3.29e-4 -0.0015,4.3e-5 -0.003,5.1e-5 -0.0046,5.8e-5 -0.0016,4e-6 -0.0032,1e-6 -0.0048,1.5e-5 -0.0017,1.4e-5 -0.0033,5.1e-5 -0.005,1.14e-4 -0.0018,7.3e-5 -0.0036,1.91e-4 -0.0054,1.86e-4 -0.0015,0 -0.003,-3e-6 -0.0045,0 -0.0013,3e-6 -0.0027,4e-6 -0.004,2.9e-5 -0.0011,2.2e-5 -0.0022,4.4e-5 -0.0033,1e-4 -0.0012,7.4e-5 -0.0025,2.05e-4 -0.0037,1.86e-4 -8.57e-4,-2e-6 -0.0017,-10e-7 -0.0026,-2.9e-5 -0.0011,-3.7e-5 -0.0021,-9.2e-5 -0.0032,-2e-4 -0.0011,-1.16e-4 -0.0022,-2.96e-4 -0.0033,-3.86e-4 -0.0013,-1.25e-4 -0.0027,-2.46e-4 -0.004,-3.71e-4 -9.43e-4,-1.21e-4 -0.0019,-2.63e-4 -0.0028,-4.16e-4 -0.0033,8.67e-4 -0.0066,0.0017 -0.0099,0.0026 -0.0054,0.0015 -0.01074,0.0029 -0.01616,0.0042 -0.006,0.0014 -0.01205,0.0029 -0.01806,0.0043 -0.0039,9.69e-4 -0.0071,6.92e-4 -0.0094,-3.14e-4 -0.0075,0.0022 -0.01502,0.0045 -0.02246,0.007 -0.01117,0.0037 -0.0224,0.0075 -0.03264,0.0134 -0.0011,7.45e-4 -0.0023,0.0015 -0.0034,0.0022 -0.0024,0.0017 -0.0046,0.0038 -0.0061,0.0063 -0.0082,0.01375 -0.02146,0.01045 -0.01557,-0.0044 2.95e-4,-7.43e-4 5.54e-4,-0.0015 9.01e-4,-0.0022 0.0023,-0.0048 0.0061,-0.0089 0.01038,-0.0121 0.0015,-0.0012 0.0032,-0.0022 0.0047,-0.0032 2.24e-4,-1.34e-4 4.47e-4,-2.54e-4 6.72e-4,-3.87e-4 -7.7e-5,-0.0037 0.0031,-0.0078 0.01005,-0.0094 0.0047,-0.0011 0.0093,-0.0025 0.01387,-0.0039 0.0077,-0.0026 0.01521,-0.0054 0.02273,-0.0084 0.0067,-0.0026 0.01344,-0.0052 0.02022,-0.0077 0.0048,-0.0018 0.0097,-0.0033 0.01467,-0.0045 0.0039,-9.18e-4 0.008,-0.0015 0.01197,-0.0021 0.0025,-3.36e-4 0.0051,-5.98e-4 0.0076,-7.72e-4 7.29e-4,-5.1e-5 0.0015,-9.8e-5 0.0022,-10e-5 7.26e-4,-3e-6 0.0014,3.7e-5 0.0022,1.28e-4 0.001,1.29e-4 0.0015,2.84e-4 0.0025,5.29e-4 0.0018,4.73e-4 0.0035,0.001 0.0052,0.0015 7.67e-4,2.29e-4 0.0015,4.26e-4 0.0023,6.01e-4 6.15e-4,-5.2e-5 0.0012,-1.01e-4 0.0018,-1.43e-4 3.7e-5,-10e-7 7.4e-5,-1.5e-5 1.15e-4,-1.5e-5 0.001,-2.7e-4 0.0021,-5.24e-4 0.0031,-8.01e-4 0.007,-0.0019 0.014,-0.0038 0.02108,-0.0052 0.0069,-0.0013 0.01384,-0.0026 0.02076,-0.0039 0.006,-10e-4 0.01199,-0.0018 0.01804,-0.0023 0.0052,-3.63e-4 0.01043,-7.4e-4 0.01566,-8.01e-4 0.0079,-5.1e-5 0.01578,8.5e-5 0.02368,2e-4 0.01293,2e-4 0.02586,4.62e-4 0.03879,7.73e-4 0.01048,2.57e-4 0.02096,5.64e-4 0.03144,7.43e-4 l 0.003,2.9e-5 c 0.0018,-0.0044 0.0074,-0.008 0.01617,-0.008 6.7e-4,3e-6 0.0014,2.2e-5 0.0021,7.4e-5 0.0031,2.07e-4 0.0062,3.33e-4 0.0093,4.15e-4 0.0019,-0.0011 0.0043,-0.0017 0.0073,-0.0018 z" />
    </clipPath><clipPath
   clipPathUnits="userSpaceOnUse"
   id="clipPath737-2">
      <path
   id="path739-1"
   style="fill:#ff0000;fill-opacity:1;fill-rule:nonzero;stroke:none;stroke-width:0.00732043"
   d="m 95.561175,65.715074 -1.88e-4,1.63e-4 2.59e-4,-8e-5 z m 7.2e-5,8.3e-5 2.31e-4,-7.3e-5 -6.7e-5,-6.9e-5 z m 2.31e-4,-7.3e-5 1.91e-4,-5.9e-5 -10e-7,-1.04e-4 z m 1.91e-4,-5.9e-5 4.2e-5,-1.3e-5 4.3e-5,-5.9e-5 z m 4.2e-5,-1.3e-5 2.19e-4,-6.8e-5 -5.3e-5,-7.3e-5 z m -7.23e-4,2.25e-4 -0.428501,0.133466 0.723961,2.324857 2.801992,-0.872541 -0.723961,-2.324857 -1.912361,0.595509 c 0.0048,0.0042 0.0089,0.0092 0.01203,0.01497 0.006,0.0111 0.0033,0.02369 -0.0036,0.03618 0.0042,-0.0021 0.0085,-0.004 0.01276,-0.0061 0.11507,-0.0563 0.163458,0.061 0.04952,0.119548 -0.0038,0.0019 -0.0076,0.0037 -0.01128,0.0058 -0.0043,0.0025 -0.0085,0.005 -0.01273,0.0076 0.0022,0.0088 0.0042,0.01887 0.0058,0.03009 5.58e-4,3.12e-4 0.0011,6.47e-4 0.0016,9.99e-4 0.0076,0.0049 0.01421,0.0098 0.01985,0.01456 0.02738,-0.0024 0.05424,0.01826 0.06142,0.06114 0.06757,0.0019 0.07562,0.08024 -0.01219,0.134122 l -3.16e-4,1.88e-4 c -7.11e-4,0.0037 -0.0014,0.0074 -0.0021,0.01112 0.0123,0.0097 0.02782,0.02515 0.04916,0.04783 0.01074,0.01141 0.0013,0.03136 5.13e-4,0.047 -6.94e-4,0.01313 -0.0029,0.02613 -0.0048,0.03914 0.0167,0.01264 0.02432,0.03679 0.03227,0.05665 0.0043,0.01071 -1.03e-4,0.0231 -0.0011,0.03459 -0.0013,0.01474 -0.0075,0.0467 -0.01046,0.06239 0.0095,0.0078 0.01834,0.01707 0.02822,0.02398 0.0045,0.01234 0.01019,0.02433 0.01353,0.03704 0.0052,0.01974 0.0065,0.05047 0.007,0.07049 1.45e-4,0.005 2.19e-4,0.01 2.64e-4,0.01494 0.02906,0.01774 0.05992,0.03291 0.08665,0.05397 0.004,0.0032 5.29e-4,0.01027 4.67e-4,0.0154 -8.4e-5,0.0071 -5.96e-4,0.01414 -9e-4,0.0212 -0.0017,0.03903 -0.0033,0.07806 -0.0056,0.11705 -6.55e-4,0.0093 -0.0013,0.01853 -0.0019,0.0278 0.02266,0.01733 0.04867,0.03153 0.06517,0.05458 0.0066,0.0093 -0.0023,0.02279 -0.005,0.03386 -0.0022,0.009 -0.01534,0.02934 -0.02084,0.03816 -0.01154,0.01728 -0.02456,0.03347 -0.03685,0.05022 0.0031,0.0027 0.0051,0.008 0.0044,0.01557 -1e-4,0.0011 -2.45e-4,0.0022 -4.25e-4,0.0032 2.63e-4,-1.05e-4 5.21e-4,-1.93e-4 7.83e-4,-2.75e-4 0.0085,-0.0026 0.01638,0.0064 0.01021,0.02063 -0.0012,0.0027 -0.0023,0.0054 -0.0035,0.008 0.0052,0.002 0.0085,0.0091 0.0047,0.01959 -0.0021,0.0057 -0.0042,0.01137 -0.0064,0.01701 4.6e-5,1.26e-4 1.03e-4,2.58e-4 1.51e-4,3.88e-4 2.22e-4,6.14e-4 5.25e-4,0.0014 6.53e-4,0.002 1.2e-4,6.34e-4 2.3e-4,0.0013 2.65e-4,0.0019 5.1e-5,9.52e-4 10e-7,0.0021 -8.2e-5,0.0032 0.002,3.8e-4 0.0035,0.0028 0.0023,0.0067 -5.23e-4,0.0017 -0.0011,0.0035 -0.0017,0.0052 9.22e-4,6.59e-4 0.0016,0.0019 0.0016,0.0036 3.48e-4,9.2e-4 5.49e-4,0.0021 4.93e-4,0.0034 -5.7e-5,0.0014 -7.8e-5,6.41e-4 7e-6,0.002 2e-5,2.86e-4 2.6e-5,5.67e-4 1.9e-5,8.32e-4 8.06e-4,-0.0012 0.0012,-0.0024 0.0014,-0.0023 1.5e-4,3e-5 2.21e-4,7.86e-4 3.2e-4,0.0028 3.4e-5,6.81e-4 1.14e-4,0.0014 9.8e-5,0.0021 -3.2e-5,0.0012 -3.61e-4,0.0031 -6.37e-4,0.0043 0.0019,7.62e-4 0.003,0.0035 0.0014,0.0072 -1.1e-4,2.42e-4 -2.33e-4,4.78e-4 -3.45e-4,7.21e-4 2.35e-4,4.05e-4 4.35e-4,8.55e-4 5.85e-4,0.0013 1.14e-4,3.57e-4 1.63e-4,6.73e-4 2.5e-4,0.0011 7.5e-5,3.66e-4 1.5e-4,7.92e-4 1.94e-4,0.0011 5.7e-5,4.34e-4 9.4e-5,8.03e-4 1.32e-4,0.0013 4e-6,5.15e-4 2.5e-5,0.001 6e-6,0.0015 -3.8e-5,0.0012 -1.83e-4,0.0024 -3.33e-4,0.0036 -9.4e-5,7.87e-4 -1.91e-4,0.0016 -3.04e-4,0.0023 1.76e-4,1.04e-4 3.21e-4,2.55e-4 4.49e-4,4.3e-4 2e-4,-1.58e-4 4.01e-4,-2.76e-4 6.08e-4,-3.54e-4 0.0015,-5.53e-4 0.003,9.88e-4 0.002,0.0035 -3e-4,7.87e-4 -6.54e-4,0.0016 -9.93e-4,0.0024 6.25e-4,5.81e-4 8.44e-4,0.0017 1.58e-4,0.0032 -2.53e-4,5.51e-4 -4.43e-4,0.0011 -6.53e-4,0.0017 2.52e-4,1.43e-4 4.34e-4,5.08e-4 3.88e-4,0.001 -2.1e-5,2.26e-4 -5.8e-5,4.47e-4 -8.9e-5,6.72e-4 -4.6e-5,3.37e-4 -1.17e-4,6.81e-4 -1.82e-4,0.001 4.92e-4,2.65e-4 3.65e-4,5.05e-4 -2.4e-5,7.41e-4 l -1.4e-5,5e-6 c -2e-6,1.6e-5 5e-6,3e-5 -1e-6,4.7e-5 l 5e-6,1.4e-5 9e-6,2.7e-5 c 4e-6,3.8e-5 5e-6,6.8e-5 10e-7,1.04e-4 1.6e-5,10e-7 3e-5,-2e-6 4.7e-5,10e-7 0,2.3e-5 -6e-6,5.6e-5 -7e-6,7.9e-5 l 4e-6,1.4e-5 c 3.2e-5,2.8e-5 5.1e-5,6.2e-5 7.7e-5,9.6e-5 1.5e-5,2.6e-5 7e-6,1.22e-4 0,1.5e-4 -3e-6,1.6e-5 1.3e-5,5.7e-5 8e-6,7.4e-5 l 4e-6,1.4e-5 c 3.4e-5,3.6e-5 6.4e-5,8.2e-5 7e-5,1.28e-4 4.2e-5,1e-5 8.7e-5,5.8e-5 1.3e-4,1.24e-4 1.7e-5,3.3e-5 -6e-6,1.29e-4 -1e-5,1.68e-4 -8e-6,9.7e-5 -2e-5,1.84e-4 -3.2e-5,2.79e-4 l -1.7e-5,9.5e-5 1.9e-5,1e-5 c 1.8e-5,9e-6 4e-6,8.7e-5 10e-7,1.04e-4 -8e-6,7.1e-5 -1.2e-5,1.34e-4 -2.7e-5,2.03e-4 -1.5e-5,7.4e-5 -2.3e-5,1.49e-4 -3.6e-5,2.19e-4 -1.2e-5,5.8e-5 -4.4e-5,1.15e-4 -6.6e-5,1.71e-4 -2.4e-5,4.6e-5 -4.1e-5,9.1e-5 -6.2e-5,1.39e-4 -2.7e-5,6.2e-5 -5.1e-5,1.17e-4 -8e-5,1.75e-4 -2.6e-5,6.2e-5 -7e-5,1.35e-4 -1.04e-4,1.98e-4 -3.3e-5,6.4e-5 -5.8e-5,1.27e-4 -8.9e-5,1.91e-4 -3.8e-5,7.4e-5 -7.7e-5,1.42e-4 -1.13e-4,2.15e-4 -3.2e-5,7.1e-5 -6e-5,1.4e-4 -9.9e-5,2.11e-4 -4.1e-5,9e-5 -1.1e-4,1.76e-4 -1.6e-4,2.59e-4 -5.2e-5,7.8e-5 -8.7e-5,1.56e-4 -1.36e-4,2.37e-4 -4.7e-5,6.9e-5 -8.6e-5,1.46e-4 -1.27e-4,2.19e-4 -3.9e-5,7.4e-5 -8.4e-5,1.43e-4 -1.26e-4,2.19e-4 -3.8e-5,7.3e-5 -9.1e-5,1.38e-4 -1.31e-4,2.05e-4 -4.1e-5,6.6e-5 -7.6e-5,1.47e-4 -1.13e-4,2.14e-4 -4.1e-5,9.1e-5 -9.6e-5,1.58e-4 -1.49e-4,2.42e-4 -5.7e-5,9.5e-5 -1.21e-4,1.81e-4 -1.86e-4,2.67e-4 -5.3e-5,7.8e-5 -1.12e-4,1.61e-4 -1.68e-4,2.32e-4 -4e-5,6.6e-5 -8.8e-5,1.26e-4 -1.34e-4,1.92e-4 -4.8e-5,6.9e-5 -8.5e-5,1.46e-4 -1.26e-4,2.19e-4 -3.8e-5,5e-5 -7.1e-5,1.1e-4 -9.9e-5,1.65e-4 l -7.5e-5,1.43e-4 c -3.1e-5,7.1e-5 -7.6e-5,1.37e-4 -1.18e-4,2.01e-4 -5.1e-5,8.5e-5 -1.1e-4,1.61e-4 -1.63e-4,2.45e-4 l -1.99e-4,2.72e-4 c -7.2e-5,9.2e-5 -1.37e-4,1.83e-4 -2.14e-4,2.76e-4 l -1.81e-4,2.36e-4 -1.16e-4,1.56e-4 c -3.8e-5,5e-5 -6.7e-5,1.12e-4 -9.9e-5,1.65e-4 -5.4e-5,8.5e-5 -1.16e-4,1.75e-4 -1.72e-4,2.63e-4 -2e-6,3e-6 -1.5e-5,2e-6 -1.4e-5,5e-6 l -1e-5,1.8e-5 c -2.7e-5,6.2e-5 -4.9e-5,1.25e-4 -7.7e-5,1.88e-4 -3.8e-5,7.3e-5 -7.3e-5,1.45e-4 -1.13e-4,2.14e-4 -4.1e-5,6.7e-5 -9e-5,1.41e-4 -1.31e-4,2.06e-4 -4.1e-5,6.7e-5 -8.6e-5,1.18e-4 -1.21e-4,1.87e-4 -4.6e-5,7.6e-5 -8.1e-5,1.56e-4 -1.23e-4,2.33e-4 -4e-5,6.7e-5 -8.4e-5,1.33e-4 -1.16e-4,2.01e-4 -2.5e-5,6.9e-5 -6.1e-5,1.3e-4 -9.1e-5,1.93e-4 -3.3e-5,6.5e-5 -5e-5,1.4e-4 -8.6e-5,2.07e-4 -3.3e-5,6.4e-5 -7.2e-5,1.19e-4 -1.07e-4,1.82e-4 -5e-5,1e-4 -1e-4,1.99e-4 -1.64e-4,2.91e-4 -6.3e-5,1.02e-4 -1.34e-4,1.95e-4 -1.92e-4,2.99e-4 -4.9e-5,9.3e-5 -9.7e-5,1.86e-4 -1.36e-4,2.82e-4 -3.4e-5,8.9e-5 -7.8e-5,1.71e-4 -1.14e-4,2.6e-4 -4.9e-5,1.24e-4 -1.14e-4,2.38e-4 -1.74e-4,3.54e-4 -5e-5,9.4e-5 -9.4e-5,1.88e-4 -1.37e-4,2.82e-4 -4.5e-5,1.01e-4 -8.5e-5,1.97e-4 -1.33e-4,2.96e-4 -4.8e-5,1.14e-4 -1.2e-4,2.2e-4 -1.83e-4,3.27e-4 -7.2e-5,1.26e-4 -1.52e-4,2.36e-4 -2.33e-4,3.57e-4 -9.1e-5,1.41e-4 -1.85e-4,2.95e-4 -2.66e-4,4.41e-4 -5.3e-5,9.8e-5 -1.06e-4,1.97e-4 -1.64e-4,2.92e-4 -9e-6,1.8e-5 -1.9e-5,3.6e-5 -2.8e-5,5.5e-5 l -8.1e-5,1.73e-4 c -9.4e-5,2.25e-4 -2.08e-4,4.4e-4 -3.03e-4,6.64e-4 -1.11e-4,2.54e-4 -2.11e-4,5.14e-4 -3.12e-4,7.72e-4 -9.8e-5,2.49e-4 -1.92e-4,5.02e-4 -2.91e-4,7.49e-4 -1.09e-4,2.64e-4 -2.14e-4,5.26e-4 -3.23e-4,7.9e-4 -1.14e-4,2.76e-4 -2.7e-4,5.31e-4 -4.33e-4,7.78e-4 -9.6e-5,1.52e-4 -2.01e-4,3.05e-4 -2.88e-4,4.64e-4 -6.8e-5,1.34e-4 -1.26e-4,2.6e-4 -1.76e-4,3.99e-4 -1.81e-4,5.01e-4 -4.77e-4,7.39e-4 -7.61e-4,7.76e-4 -0.0012,0.0015 -0.0028,0.0014 -0.0034,5.34e-4 -0.0012,-1.9e-5 -0.002,-0.0011 -0.0015,-0.0026 -0.0021,0.0033 -0.0055,0.0012 -0.0034,-0.0021 3.67e-4,-5.94e-4 7.28e-4,-0.0012 0.0011,-0.0018 3.49e-4,-6.22e-4 6.81e-4,-0.0012 9.92e-4,-0.0019 -0.0016,6.08e-4 -0.0031,-9.79e-4 -0.0019,-0.0036 4e-6,-8e-6 -3e-6,-2.2e-5 6e-6,-3.2e-5 -2.98e-4,-1.1e-5 -5.77e-4,-1e-4 -8.13e-4,-2.56e-4 -0.0035,0.0025 -0.0074,-7.43e-4 -0.005,-0.0061 -0.0026,9.99e-4 -0.0051,0.0015 -0.0041,-0.002 1.01e-4,-3.45e-4 2.04e-4,-6.81e-4 3.23e-4,-9.84e-4 1.41e-4,-3.91e-4 5.38e-4,-0.0012 7.15e-4,-0.0016 2.17e-4,-4.46e-4 4.31e-4,-9.03e-4 6.59e-4,-0.0013 -8.91e-4,-0.0013 -0.0011,-0.0033 6.4e-5,-0.006 6.75e-4,-0.0015 0.0013,-0.0031 0.002,-0.0046 -0.0029,0.0041 -0.0068,0.0036 -0.0077,6.61e-4 -5.68e-4,-3.56e-4 -9.35e-4,-8.45e-4 -0.0013,-0.0016 -0.0015,0.0031 -0.003,0.0061 -0.0044,0.0092 l -0.0013,0.0028 c -0.0097,0.02048 -0.03035,0.01071 -0.02066,-0.0098 l 0.0013,-0.0028 c 0.0015,-0.0033 0.0031,-0.0065 0.0047,-0.0098 -9.9e-4,-3.03e-4 -0.0019,-8.17e-4 -0.0027,-0.0014 -0.0084,0.01537 -0.0262,0.0077 -0.01968,-0.01202 0.0011,-0.0034 5.07e-4,-0.0016 0.0018,-0.0053 0.0028,-0.0072 0.006,-0.01414 0.0093,-0.02106 0.0036,-0.0073 0.0075,-0.01449 0.01085,-0.02189 3.06e-4,-7.24e-4 6.08e-4,-0.0014 9.17e-4,-0.0022 -0.0017,-0.0027 -0.0028,-0.0064 -0.0026,-0.01129 -7.62e-4,4.06e-4 -0.0016,6.97e-4 -0.0025,8.82e-4 -0.02623,0.0055 -0.05349,0.0031 -0.08024,0.0046 -1.48e-4,-2.79e-4 -3.17e-4,-5.48e-4 -4.67e-4,-8.28e-4 -0.03054,-0.0023 -0.06117,-0.0129 -0.08709,-0.02904 -0.01039,-0.0065 -0.0084,-0.02316 -0.01032,-0.03526 -0.0028,-0.01807 0.002,-0.04354 0.0044,-0.06109 0.0021,-0.01437 0.008,-0.05476 0.0099,-0.06931 0.0013,-0.0099 0.0025,-0.01976 0.0034,-0.02969 5.96e-4,-0.006 4.83e-4,-0.01215 0.0013,-0.01818 1.61e-4,-0.0013 4.7e-4,-0.0044 0.0015,-0.0036 0.0046,0.0037 0.0074,0.0091 0.01107,0.01362 0.0082,0.0042 0.01546,0.01145 0.0246,0.01272 0.006,8.3e-4 0.0121,7.55e-4 0.01818,1.04e-4 -0.01188,-0.0038 -0.02679,-0.01313 -0.04913,-0.02996 -0.01233,-0.0093 -0.01373,-0.02769 -0.01895,-0.04224 -0.0038,-0.01063 -0.0055,-0.02197 -0.008,-0.033 -0.0031,-0.01379 -0.01037,-0.05162 -0.01309,-0.06565 -0.0011,-0.0056 -0.0024,-0.01248 -0.0038,-0.01929 -0.0094,-0.0041 -0.01819,-0.01013 -0.02632,-0.01633 -0.0089,-0.0068 -0.01496,-0.01659 -0.0211,-0.02588 -0.01284,-0.01928 -0.02328,-0.04688 -0.03211,-0.06762 -0.0015,-0.0037 -0.003,-0.0075 -0.0045,-0.01127 -0.01794,-0.0071 -0.04416,-0.01825 -0.08429,-0.03181 -0.0047,-0.0016 0.0019,-0.0097 0.003,-0.01453 0.0034,-0.01536 0.01664,-0.07375 0.01881,-0.08337 0.0022,-0.0097 0.0044,-0.01944 0.0066,-0.02916 l -0.0031,-0.0094 c -0.0012,0.0015 -0.0025,0.003 -0.0037,0.0046 -0.03813,0.046 -0.07707,0.0913 -0.117605,0.135202 -0.04223,0.04311 -0.0507,0.04188 -0.118432,-0.04442 -0.009,0.0013 -0.0178,5.5e-5 -0.02586,-0.0051 -0.07589,-0.04848 -0.04411,-0.08709 -0.01788,-0.123007 0.0091,-0.01243 0.01834,-0.02471 0.02765,-0.03696 0.01204,-0.01585 0.02422,-0.03157 0.03633,-0.04736 0.0074,-0.0096 0.01492,-0.01907 0.02239,-0.02861 -0.0074,-0.0093 -0.01362,-0.01929 -0.01784,-0.0304 -0.0026,0.0013 -0.0051,0.0026 -0.0077,0.0039 -0.04,0.01968 -0.09578,0.04741 -0.128009,-0.02853 -0.01295,-0.03051 0.02009,-0.06318 0.03013,-0.09478 0.0015,-0.0018 0.003,-0.0035 0.0045,-0.0052 -0.0067,-0.0014 -0.01321,-0.0033 -0.01923,-0.0065 -0.01578,-0.0084 -0.02728,-0.0203 -0.03578,-0.03417 -0.01047,0.0039 -0.02179,0.009 -0.02816,0.0018 -0.07785,-0.08761 -0.06311,-0.08341 -0.01805,-0.133932 0.0061,-0.0058 0.01268,-0.01142 0.01916,-0.017 z m 0.137929,0.05341 c 1.1e-5,1.5e-5 7e-6,4.5e-5 3.1e-5,4.9e-5 1.2e-5,-1e-5 2.6e-5,-1.6e-5 3.8e-5,-2.6e-5 z m 3.1e-5,4.9e-5 -8.3e-5,-1.9e-5 c 1.4e-5,2e-5 4e-6,3.7e-5 3.6e-5,6.4e-5 1.8e-5,-1.5e-5 2.9e-5,-2.9e-5 4.7e-5,-4.5e-5 z m -1.46e-4,1.06e-4 8e-6,2.7e-5 c -0.0027,0.0023 -0.0051,0.0043 -0.0076,0.0063 2.05e-4,4.37e-4 4.06e-4,10e-4 6.19e-4,0.0014 0.0028,-10e-4 0.0049,-0.0018 0.009,-0.0033 3.25e-4,-1.16e-4 5.49e-4,-2.17e-4 8.7e-4,-3.31e-4 -9.34e-4,-0.0014 -0.0019,-0.0028 -0.0029,-0.0041 z m -0.129302,0.04609 c 4e-5,6.19e-4 10e-4,0.006 0.0024,0.0099 -7.88e-4,-0.003 -0.0015,-0.006 -0.0022,-0.0091 -1.12e-4,-5.08e-4 -1.8e-4,-7.52e-4 -2e-4,-7.91e-4 z m 0.602896,0.418876 -6.7e-5,6.96e-4 c 3.17e-4,-5.3e-5 0.0012,1.5e-5 9.57e-4,-1.49e-4 -2.99e-4,-1.77e-4 -5.96e-4,-3.72e-4 -8.9e-4,-5.47e-4 z m 0.02135,-2.54e-4 c -0.0017,0.002 -0.0036,0.0039 -0.005,0.0061 -0.0011,0.0017 -0.0028,0.0044 -0.0047,0.0075 0.0032,-0.0036 0.0062,-0.0082 0.0097,-0.01352 z m -0.002,0.143017 -5e-6,3.2e-5 c 4.7e-5,2.5e-4 8.8e-5,5.05e-4 1.39e-4,7.36e-4 -5.3e-5,-2.68e-4 -9.8e-5,-5.35e-4 -1.34e-4,-7.67e-4 z m 1.89e-4,9.89e-4 -10e-7,4.6e-5 c 7e-5,2.99e-4 1.46e-4,5.65e-4 2.18e-4,8.46e-4 -7.3e-5,-2.82e-4 -1.49e-4,-5.76e-4 -2.17e-4,-8.92e-4 z m 0.02189,0.006 c -4.4e-5,2.9e-5 -6e-5,8e-5 -1.2e-4,1.43e-4 -0.0013,0.0015 -0.0024,0.0031 -0.0036,0.0047 5e-4,-2.46e-4 9.81e-4,-5.33e-4 0.0015,-7.66e-4 0.0012,-5.53e-4 0.0026,-0.004 0.0023,-0.0041 z m -0.08083,0.202175 c -0.0012,5.02e-4 -0.0027,0.005 -0.0017,0.0041 0.0011,-9.98e-4 0.0017,-0.0025 0.0025,-0.0038 l -2.59e-4,-2.04e-4 c -1.49e-4,-1.19e-4 -3.15e-4,-9.8e-5 -4.87e-4,-2.8e-5 z m 0.234093,0.198673 c -5.55e-4,4.46e-4 -0.0011,8.88e-4 -0.0016,0.0014 7.58e-4,-3.22e-4 0.0015,-6.09e-4 0.0023,-9.4e-4 1.4e-5,-7e-6 5e-5,-3.9e-5 6.2e-5,-5e-5 2.5e-5,-1.65e-4 -5.34e-4,-5.4e-4 -7.07e-4,-3.94e-4 z" />
    </clipPath></defs>
  
<g
   inkscape:groupmode="layer"
   id="layer2"
   inkscape:label="Layer 1"><path
     id="rect3117"
     style="fill:#521bff;stroke-width:0.264583"
     d="M -9.4339209,-8.7082348 H 178.7607 V 178.7607 H -9.4339209 Z" /></g><g
   inkscape:groupmode="layer"
   id="layer3"
   inkscape:label="Layer 2"><g
     id="layer1"
     transform="matrix(0.85566511,0,0,0.85566511,-1.326742,-22.149421)"
     style="fill:#ffffff">
    <g
   id="g327"
   transform="matrix(36.143163,0,0,36.143163,-2508.7249,-3210.9148)"
   clip-path="url(#clipPath954-0)"
   style="fill:#ffffff">
      <g
   id="g1124"
   style="fill:#ffffff">
        <path
   fill="url(#sw-gradient)"
   d="m 69.485559,91.451397 c 0.04465,0.0571 0.04465,0.148604 0.02489,0.234985 -0.01977,0.08711 -0.0593,0.169834 -0.124447,0.20424 -0.06588,0.03367 -0.158121,0.01903 -0.22913,-0.02196 -0.07174,-0.04099 -0.121519,-0.108342 -0.144212,-0.187403 -0.02269,-0.07906 -0.01757,-0.169834 0.02855,-0.226933 0.04685,-0.05783 0.133964,-0.08126 0.222541,-0.08199 0.08858,-7.32e-4 0.177154,0.02196 0.221809,0.07906 z"
   width="100%"
   height="100%"
   stroke-width="0"
   id="path1186"
   style="fill:#ffffff" />
        <g
   aria-label="M"
   id="text232"
   style="font-weight:bold;font-size:2.44014px;font-family:'Yu Gothic UI';-inkscape-font-specification:'Yu Gothic UI Bold';fill:#ffffff;stroke-width:0.00732043">
          <path
   d="m 71.037236,92.270674 q 0.02074,0.03904 0.03782,0.08174 0.0183,0.04148 0.03538,0.08419 0.01708,-0.04392 0.03538,-0.08662 0.0183,-0.0427 0.03904,-0.08174 l 0.52219,-0.977276 q 0.0098,-0.0183 0.01952,-0.02928 0.01098,-0.01098 0.02318,-0.01586 0.01342,-0.0049 0.02928,-0.0061 0.01586,-0.0012 0.03782,-0.0012 h 0.247674 v 1.764221 h -0.289156 v -1.139545 q 0,-0.03172 0.0012,-0.06954 0.0024,-0.03782 0.0061,-0.07686 l -0.533171,1.000458 q -0.0183,0.03416 -0.04758,0.05368 -0.02928,0.0183 -0.06832,0.0183 h -0.04514 q -0.03904,0 -0.06832,-0.0183 -0.02928,-0.01952 -0.04758,-0.05368 l -0.540491,-1.004118 q 0.0049,0.04026 0.0061,0.0793 0.0024,0.03782 0.0024,0.07076 v 1.139545 h -0.289157 v -1.764221 h 0.247675 q 0.02196,0 0.03782,0.0012 0.01586,0.0012 0.02806,0.0061 0.01342,0.0049 0.0244,0.01586 0.01098,0.01098 0.02074,0.02928 l 0.52707,0.979716 z"
   style="font-family:Lato;-inkscape-font-specification:'Lato Bold';fill:#ffffff"
   id="path744" />
        </g>
        <g
   aria-label="W"
   transform="rotate(17.296595)"
   id="text232-9"
   clip-path="url(#clipPath737-2)"
   style="font-weight:bold;font-size:2.44014px;font-family:'Yu Gothic UI';-inkscape-font-specification:'Yu Gothic UI Bold';fill:#ffffff;stroke-width:0.00732043">
          <path
   d="m 95.633293,65.692749 h 0.275736 q 0.0427,0 0.07076,0.02074 0.02928,0.01952 0.03904,0.05368 l 0.300138,1.055361 q 0.01098,0.03904 0.01952,0.0854 0.0098,0.04514 0.0183,0.09638 0.0098,-0.05124 0.02074,-0.09638 0.0122,-0.04636 0.02562,-0.0854 l 0.3465,-1.055361 q 0.0098,-0.02806 0.03782,-0.05124 0.02928,-0.02318 0.07076,-0.02318 h 0.09639 q 0.0427,0 0.07076,0.02074 0.02806,0.01952 0.03904,0.05368 l 0.34406,1.055361 q 0.02684,0.07808 0.04636,0.17325 0.0085,-0.04758 0.01708,-0.0915 0.0098,-0.04392 0.01952,-0.08174 l 0.300137,-1.055361 q 0.0085,-0.0305 0.03782,-0.05246 0.02928,-0.02196 0.07076,-0.02196 h 0.257435 L 97.609807,67.45697 H 97.31333 l -0.385543,-1.205429 q -0.0073,-0.02318 -0.01586,-0.05002 -0.0073,-0.02684 -0.01464,-0.05734 -0.0073,0.0305 -0.01586,0.05734 -0.0073,0.02684 -0.01464,0.05002 l -0.389202,1.205429 h -0.296477 z"
   style="font-family:Lato;-inkscape-font-specification:'Lato Bold';fill:#ffffff"
   id="path741" />
        </g>
      </g>
    </g>
  </g></g></svg>
